<svg xmlns="http://www.w3.org/2000/svg" xmlns:xlink="http://www.w3.org/1999/xlink" viewBox="0 0 566.93 566.93"><defs><style>.cls-1,.cls-5,.cls-7{fill:#d5ecf7;}.cls-1,.cls-10,.cls-2,.cls-9{stroke:#0477bc;stroke-linejoin:round;stroke-width:2.75px;}.cls-2,.cls-6{fill:#fff;}.cls-3{isolation:isolate;}.cls-4{fill:#dce2f0;}.cls-5{mix-blend-mode:multiply;}.cls-8{clip-path:url(#clip-path);}.cls-10,.cls-9{fill:none;}.cls-9{stroke-linecap:round;}.cls-11{fill:#0477bc;}.cls-12{clip-path:url(#clip-path-2);}.cls-13{clip-path:url(#clip-path-3);}</style><clipPath id="clip-path"><path class="cls-1" d="M232.64,10.19,162.34,38a11.61,11.61,0,0,0-6.52,15.07l4.89,12.35,55,139a11.17,11.17,0,0,0,14.5,6.27l71.11-28.16a11.18,11.18,0,0,0,6.28-14.5l-55-139-4.89-12.35A11.61,11.61,0,0,0,232.64,10.19Z"/></clipPath><clipPath id="clip-path-2"><path class="cls-2" d="M237.52,318.29a10.93,10.93,0,0,0,8.9,12.64L537,381.55a10.93,10.93,0,0,0,12.64-8.89l.81-4.63L238.33,313.66Z"/></clipPath><clipPath id="clip-path-3"><path class="cls-1" d="M215.65,256.56,31.8,311.33A10.13,10.13,0,0,0,25,323.94l3.31,11.11L58.92,437.86a9.74,9.74,0,0,0,12.13,6.56l184.58-55a9.76,9.76,0,0,0,6.57-12.13L231.57,274.49l-3.31-11.11A10.14,10.14,0,0,0,215.65,256.56Z"/></clipPath></defs><g class="cls-3"><g id="Various_Devices" data-name="Various Devices"><circle class="cls-4" cx="289.67" cy="283.46" r="239.17"/><path class="cls-5" d="M289.68,192.33l-52.29-132-4.65-11.73a11,11,0,0,0-14.32-6.19L151.64,68.82a11,11,0,0,0-6.19,14.31l4.64,11.73,52.29,132a10.62,10.62,0,0,0,13.78,6l67.56-26.75A10.63,10.63,0,0,0,289.68,192.33Z"/><path class="cls-5" d="M526.79,231.3,288.54,189.8a10.79,10.79,0,0,0-12.48,8.78l-2.12,12.16L252,336.83a10.35,10.35,0,0,0,2.23,8.38l-22.08-3.84-.76,4.4a10.37,10.37,0,0,0,8.44,12l276.06,48.09a10.4,10.4,0,0,0,12-8.45l.76-4.4-22.07-3.85a10.34,10.34,0,0,0,4.92-7.13l22-126.09,2.12-12.17A10.79,10.79,0,0,0,526.79,231.3Z"/><path class="cls-5" d="M250.6,408.79l-29.1-97.66-3.15-10.56a9.62,9.62,0,0,0-12-6.48l-174.66,52a9.62,9.62,0,0,0-6.48,12l3.14,10.56,29.1,97.67A9.26,9.26,0,0,0,69,472.56l175.36-52.24A9.27,9.27,0,0,0,250.6,408.79Z"/><path class="cls-6" d="M232.64,10.19,162.34,38a11.61,11.61,0,0,0-6.52,15.07l4.89,12.35,55,139a11.17,11.17,0,0,0,14.5,6.27l71.11-28.16a11.18,11.18,0,0,0,6.28-14.5l-55-139-4.89-12.35A11.61,11.61,0,0,0,232.64,10.19Z"/><path class="cls-6" d="M236.91,16.16a4.8,4.8,0,0,1,4.49,3.05l4.89,12.35,55,139a4.28,4.28,0,0,1-.05,3.35,4.39,4.39,0,0,1-2.41,2.34L227.76,204.4a4.27,4.27,0,0,1-1.61.31,4.37,4.37,0,0,1-4.08-2.77L167,63,162.13,50.6a4.83,4.83,0,0,1,2.71-6.26l70.3-27.84a4.72,4.72,0,0,1,1.77-.34m0-6.79a11.52,11.52,0,0,0-4.27.82L162.34,38a11.61,11.61,0,0,0-6.52,15.07l4.89,12.35,55,139a11.16,11.16,0,0,0,14.5,6.27l71.11-28.16a11.18,11.18,0,0,0,6.28-14.5l-55-139-4.89-12.35a11.6,11.6,0,0,0-10.8-7.34Z"/><path class="cls-7" d="M232.64,10.19,162.34,38a11.61,11.61,0,0,0-6.52,15.07l4.89,12.35,55,139a11.17,11.17,0,0,0,14.5,6.27l71.11-28.16a11.18,11.18,0,0,0,6.28-14.5l-55-139-4.89-12.35A11.61,11.61,0,0,0,232.64,10.19Z"/><g class="cls-8"><rect class="cls-6" x="190.28" y="31.82" width="85.3" height="163.53" rx="3.45" transform="translate(-25.46 93.74) rotate(-21.6)"/><line class="cls-9" x1="189.4" y1="36.35" x2="212.3" y2="27.28"/><path class="cls-5" d="M520,339.81l23.12-132.73,2.23-12.8a11.36,11.36,0,0,0-9.24-13.15l-250.8-43.68a11.36,11.36,0,0,0-13.14,9.24L270,159.49,246.86,292.22a10.94,10.94,0,0,0,8.89,12.65"/></g><path class="cls-10" d="M232.64,10.19,162.34,38a11.61,11.61,0,0,0-6.52,15.07l4.89,12.35,55,139a11.17,11.17,0,0,0,14.5,6.27l71.11-28.16a11.18,11.18,0,0,0,6.28-14.5l-55-139-4.89-12.35A11.61,11.61,0,0,0,232.64,10.19Z"/><line class="cls-9" x1="257.4" y1="37.25" x2="264.73" y2="55.76"/><circle class="cls-11" cx="168.1" cy="44.85" r="2.93"/><path class="cls-6" d="M548.51,197.8,297.72,154.11a11.35,11.35,0,0,0-13.14,9.24l-2.23,12.81L259.23,308.88a10.93,10.93,0,0,0,8.89,12.65l251.64,43.83a10.92,10.92,0,0,0,12.64-8.89l23.12-132.73,2.23-12.8A11.35,11.35,0,0,0,548.51,197.8Z"/><path class="cls-6" d="M548.51,197.8,297.72,154.11a11.35,11.35,0,0,0-13.14,9.24l-2.23,12.81L259.23,308.88a10.93,10.93,0,0,0,8.89,12.65l251.64,43.83a10.92,10.92,0,0,0,12.64-8.89l23.12-132.73,2.23-12.8A11.35,11.35,0,0,0,548.51,197.8Z"/><path class="cls-7" d="M295.76,162.94a2,2,0,0,1,.41,0L547,206.66a2.37,2.37,0,0,1,1.92,2.73l-2.23,12.81L523.54,354.92a2,2,0,0,1-1.89,1.61l-.35,0L269.66,312.66a1.86,1.86,0,0,1-1.24-.79,1.91,1.91,0,0,1-.33-1.44L291.21,177.7l2.23-12.8a2.36,2.36,0,0,1,2.32-2m0-9a11.36,11.36,0,0,0-11.18,9.41l-2.23,12.81L259.23,308.88a10.93,10.93,0,0,0,8.89,12.65l251.64,43.83a11.07,11.07,0,0,0,1.89.17,10.93,10.93,0,0,0,10.75-9.06l23.12-132.73,2.23-12.8a11.35,11.35,0,0,0-9.24-13.14L297.72,154.11a12,12,0,0,0-2-.17Z"/><path class="cls-10" d="M548.51,197.8,297.72,154.11a11.35,11.35,0,0,0-13.14,9.24l-2.23,12.81L259.23,308.88a10.93,10.93,0,0,0,8.89,12.65l251.64,43.83a10.92,10.92,0,0,0,12.64-8.89l23.12-132.73,2.23-12.8A11.35,11.35,0,0,0,548.51,197.8Z"/><path class="cls-6" d="M237.52,318.29a10.93,10.93,0,0,0,8.9,12.64L537,381.55a10.93,10.93,0,0,0,12.64-8.89l.81-4.63L238.33,313.66Z"/><g class="cls-12"><path class="cls-7" d="M369.11,343.79l48.08,8.38a7.26,7.26,0,0,0,8.38-5.9h0l-62.35-10.86h0A7.24,7.24,0,0,0,369.11,343.79Z"/><path class="cls-7" d="M235,246.72,51.19,301.49a10.13,10.13,0,0,0-6.82,12.61l3.31,11.11L78.31,428a9.74,9.74,0,0,0,12.13,6.56l184.58-55a9.76,9.76,0,0,0,6.57-12.13L251,264.65l-3.31-11.11A10.14,10.14,0,0,0,235,246.72Z"/></g><path class="cls-10" d="M237.52,318.29a10.93,10.93,0,0,0,8.9,12.64L537,381.55a10.93,10.93,0,0,0,12.64-8.89l.81-4.63L238.33,313.66Z"/><path class="cls-7" d="M215.65,256.56,31.8,311.33A10.13,10.13,0,0,0,25,323.94l3.31,11.11L58.92,437.86a9.74,9.74,0,0,0,12.13,6.56l184.58-55a9.76,9.76,0,0,0,6.57-12.13L231.57,274.49l-3.31-11.11A10.14,10.14,0,0,0,215.65,256.56Z"/><g class="cls-13"><rect class="cls-6" x="31.14" y="297" width="231.77" height="145.75" transform="translate(-99.48 57.37) rotate(-16.59)"/></g><path class="cls-10" d="M215.65,256.56,31.8,311.33A10.13,10.13,0,0,0,25,323.94l3.31,11.11L58.92,437.86a9.74,9.74,0,0,0,12.13,6.56l184.58-55a9.76,9.76,0,0,0,6.57-12.13L231.57,274.49l-3.31-11.11A10.14,10.14,0,0,0,215.65,256.56Z"/><circle class="cls-11" cx="50.58" cy="315.72" r="2.91"/><circle class="cls-11" cx="64.97" cy="311.43" r="2.91"/><circle class="cls-11" cx="36.18" cy="320.01" r="2.91"/></g></g></svg>