<svg xmlns="http://www.w3.org/2000/svg" xmlns:xlink="http://www.w3.org/1999/xlink" viewBox="0 0 566.93 566.93"><defs><style>.cls-1,.cls-5{fill:#fff;}.cls-1,.cls-7{stroke:#0477bc;stroke-linejoin:round;stroke-width:2.75px;}.cls-2{isolation:isolate;}.cls-3{fill:#dce2f0;}.cls-4,.cls-9{fill:#d5ecf7;}.cls-4{mix-blend-mode:multiply;}.cls-6{clip-path:url(#clip-path);}.cls-10,.cls-7{fill:none;}.cls-8{fill:#0477bc;}.cls-10{stroke:#fff;stroke-linecap:round;stroke-miterlimit:10;stroke-width:13px;}</style><clipPath id="clip-path"><path class="cls-1" d="M473.84,113.72,81,161.89a20.91,20.91,0,0,0-18.21,23.3l2.91,23.74L92.64,428.61a20.12,20.12,0,0,0,22.42,17.52l394.41-48.37A20.12,20.12,0,0,0,527,375.34L500.05,155.67l-2.91-23.75A20.9,20.9,0,0,0,473.84,113.72Z"/></clipPath></defs><g class="cls-2"><g id="Browser_Extension" data-name="Browser Extension"><circle class="cls-3" cx="283.46" cy="283.46" r="239.17"/><path class="cls-4" d="M475.88,420l-25.6-208.69-2.76-22.55a19.87,19.87,0,0,0-22.14-17.3L52.18,217.18a19.88,19.88,0,0,0-17.3,22.14l2.77,22.55L63.24,470.56a19.12,19.12,0,0,0,21.3,16.65l374.69-45.95A19.12,19.12,0,0,0,475.88,420Z"/><path class="cls-5" d="M473.84,113.72,81,161.89a20.91,20.91,0,0,0-18.21,23.3l2.91,23.74L92.64,428.61a20.12,20.12,0,0,0,22.42,17.52l394.41-48.37A20.12,20.12,0,0,0,527,375.34L500.05,155.67l-2.91-23.75A20.9,20.9,0,0,0,473.84,113.72Z"/><g class="cls-6"><rect class="cls-4" x="35.84" y="138.23" width="478.18" height="33.28" transform="translate(-16.81 34.62) rotate(-6.99)"/></g><path class="cls-7" d="M473.84,113.72,81,161.89a20.91,20.91,0,0,0-18.21,23.3l2.91,23.74L92.64,428.61a20.12,20.12,0,0,0,22.42,17.52l394.41-48.37A20.12,20.12,0,0,0,527,375.34L500.05,155.67l-2.91-23.75A20.9,20.9,0,0,0,473.84,113.72Z"/><circle class="cls-8" cx="117.7" cy="177.27" r="6.01"/><circle class="cls-8" cx="148.45" cy="173.5" r="6.01"/><circle class="cls-8" cx="476.36" cy="133.24" r="6.01"/><circle class="cls-8" cx="86.94" cy="181.04" r="6.01"/><path class="cls-8" d="M466.6,172.14,326.77,189.31a5.48,5.48,0,0,0-4.78,6.11l15.18,123.63a5.49,5.49,0,0,0,6.11,4.78l151.2-18.57a5.47,5.47,0,0,0,4.77-6.11L484.73,180.84Z"/><path class="cls-9" d="M484.74,152.2l-15.09,16.06L329.81,185.43a5.48,5.48,0,0,0-4.77,6.11l15.18,123.63a5.49,5.49,0,0,0,6.11,4.78l151.2-18.57a5.48,5.48,0,0,0,4.77-6.11Z"/><line class="cls-10" x1="399.93" y1="292.97" x2="442.55" y2="287.74"/></g><g id="Pattern"><path class="cls-8" d="M447.1,225.16l.13,1.28c0,.45,1,11-2.73,19.73s-12.15,15.2-12.5,15.47l-1,.78-2.07-.9-11.83-5.1a19.8,19.8,0,0,1-2.11-1.06h0a19.82,19.82,0,0,1-1.7-1,22.72,22.72,0,0,1-7.18-8A26.13,26.13,0,0,1,403,235.66a7.4,7.4,0,0,1,3.44-1.3c.29,0,.58-.05.89-.06a22.26,22.26,0,0,0,2.33,9.41,18.31,18.31,0,0,0,9.17,8.67l11.48,5c.23-.19.49-.43.77-.68,2.5-2.24,7-6.83,9.39-12.25,2.62-6.06,2.6-13.38,2.47-16.27L438.05,226a26.3,26.3,0,0,0,.19-4.71Z"/><path class="cls-8" d="M432,204.8l1.75,15c.09.79.13,1.58.15,2.36h0a18.84,18.84,0,0,1-.06,2,22.05,22.05,0,0,1-.78,4.45,22.55,22.55,0,0,1-2.54,5.78,25.94,25.94,0,0,1-7.7,8,7.28,7.28,0,0,1-3.33-3.08,22,22,0,0,0,6.92-6.66h0a18.36,18.36,0,0,0,3-12.33l-1.44-12.41-1-.32c-3.2-1-9.44-2.7-15.34-2-6.54.76-12.87,4.43-15.3,6l.61,5.28a27.15,27.15,0,0,0-4.18,2.16l-1.1-9.55,1-.76c.37-.26,9-6.39,18.44-7.49s19.25,2.9,19.66,3.08Z"/><path class="cls-8" d="M396.36,227.23l-10,7.46c.05.27.11.59.18.93.67,3.26,2.38,9.54,5.93,14.33,3.92,5.3,10.26,8.95,12.84,10.29l4.26-3.17a28.37,28.37,0,0,0,4,2.52l-7.75,5.74-1.18-.53c-.41-.17-10-4.56-15.69-12.23s-7.1-18.13-7.16-18.56l-.16-1.28,1.83-1.37,10.33-7.66c.64-.47,1.28-.9,1.94-1.29a17.08,17.08,0,0,1,1.78-1,21.24,21.24,0,0,1,4.25-1.55,23.08,23.08,0,0,1,6.27-.7,26.09,26.09,0,0,1,10.76,2.71,7.72,7.72,0,0,1-1,4.41,21.89,21.89,0,0,0-9.24-2.68A18.49,18.49,0,0,0,396.36,227.23Z"/></g></g></svg>