<svg xmlns="http://www.w3.org/2000/svg" xmlns:xlink="http://www.w3.org/1999/xlink" viewBox="0 0 566.93 566.93"><defs><style>.cls-1,.cls-4,.cls-6{fill:#d5ecf7;}.cls-1,.cls-8,.cls-9{stroke:#0477bc;stroke-linejoin:round;stroke-width:2.75px;}.cls-2{fill:#dce2f0;}.cls-3{isolation:isolate;}.cls-12,.cls-4{mix-blend-mode:multiply;}.cls-5{fill:#fff;}.cls-7{clip-path:url(#clip-path);}.cls-8,.cls-9{fill:none;}.cls-8{stroke-linecap:round;}.cls-10{fill:#0477bc;}.cls-11{clip-path:url(#clip-path-2);}</style><clipPath id="clip-path"><path class="cls-1" d="M276.3,74.52,142.79,127.4A22,22,0,0,0,130.41,156l9.28,23.45,104.54,264a21.22,21.22,0,0,0,27.54,11.91l135.06-53.48a21.22,21.22,0,0,0,11.91-27.54l-104.53-264-9.29-23.45A22.05,22.05,0,0,0,276.3,74.52Z"/></clipPath><clipPath id="clip-path-2"><circle class="cls-2" cx="283.46" cy="-486.19" r="239.17"/></clipPath></defs><g class="cls-3"><g id="Phone"><circle class="cls-2" cx="289.67" cy="283.46" r="239.17"/><path class="cls-4" d="M384.62,420.44,285.31,169.68l-8.83-22.28a20.94,20.94,0,0,0-27.19-11.76L122.46,185.87a20.94,20.94,0,0,0-11.76,27.19l8.82,22.27L218.83,486.1A20.15,20.15,0,0,0,245,497.42L373.3,446.6A20.16,20.16,0,0,0,384.62,420.44Z"/><path class="cls-5" d="M276.3,74.52,142.79,127.4A22,22,0,0,0,130.41,156l9.28,23.45,104.54,264a21.22,21.22,0,0,0,27.54,11.91l135.06-53.48a21.22,21.22,0,0,0,11.91-27.54l-104.53-264-9.29-23.45A22.05,22.05,0,0,0,276.3,74.52Z"/><path class="cls-5" d="M284.41,79.76a15.19,15.19,0,0,1,14.2,9.64l9.29,23.46,104.53,264a14.44,14.44,0,0,1-8.1,18.73L269.27,449a14.41,14.41,0,0,1-18.73-8.1L146,177l-9.29-23.45a15.27,15.27,0,0,1,8.57-19.81L278.8,80.83a15.24,15.24,0,0,1,5.61-1.07m0-6.79a22.07,22.07,0,0,0-8.11,1.55L142.79,127.4A22,22,0,0,0,130.41,156l9.28,23.45,104.54,264a21.19,21.19,0,0,0,27.54,11.91l135.06-53.48a21.22,21.22,0,0,0,11.91-27.54l-104.53-264-9.29-23.45A22.06,22.06,0,0,0,284.41,73Z"/><path class="cls-6" d="M276.3,74.52,142.79,127.4A22,22,0,0,0,130.41,156l9.28,23.45,104.54,264a21.22,21.22,0,0,0,27.54,11.91l135.06-53.48a21.22,21.22,0,0,0,11.91-27.54l-104.53-264-9.29-23.45A22.05,22.05,0,0,0,276.3,74.52Z"/><g class="cls-7"><rect class="cls-5" x="195.84" y="115.6" width="162" height="310.57" rx="3.45" transform="translate(-80.29 120.96) rotate(-21.6)"/><line class="cls-8" x1="194.18" y1="124.2" x2="237.67" y2="106.98"/></g><path class="cls-9" d="M276.3,74.52,142.79,127.4A22,22,0,0,0,130.41,156l9.28,23.45,104.54,264a21.22,21.22,0,0,0,27.54,11.91l135.06-53.48a21.22,21.22,0,0,0,11.91-27.54l-104.53-264-9.29-23.45A22.05,22.05,0,0,0,276.3,74.52Z"/><line class="cls-8" x1="323.32" y1="125.92" x2="337.24" y2="161.07"/><circle class="cls-10" cx="153.72" cy="140.34" r="5.57"/></g><g id="_3" data-name="3"><circle class="cls-2" cx="283.46" cy="-486.19" r="239.17"/><g class="cls-11"><g class="cls-12"><path class="cls-6" d="M155.54,22.49l-5.68-6.32,79.79-71.76A103.81,103.81,0,0,0,237.41-202l-34.87-38.77a111.47,111.47,0,0,1-28.62-81,111.44,111.44,0,0,1,37-77.48l38.94-35,5.69,6.33-38.95,35a103,103,0,0,0-34.2,71.61,103,103,0,0,0,26.44,74.82l34.87,38.77a112.31,112.31,0,0,1-8.4,158.43Z"/></g></g></g></g></svg>