<svg xmlns="http://www.w3.org/2000/svg" xmlns:xlink="http://www.w3.org/1999/xlink" viewBox="0 0 566.93 566.93"><defs><style>.cls-1{fill:#dce2f0;}.cls-2{isolation:isolate;}.cls-3{clip-path:url(#clip-path);}.cls-4{mix-blend-mode:multiply;}.cls-10,.cls-16,.cls-5{fill:#d5ecf7;}.cls-12,.cls-13,.cls-14,.cls-15,.cls-6,.cls-9{fill:none;}.cls-10,.cls-11,.cls-12,.cls-13,.cls-14,.cls-15,.cls-16,.cls-6,.cls-8,.cls-9{stroke:#0477bc;stroke-linejoin:round;}.cls-6{stroke-width:8.5px;}.cls-7{clip-path:url(#clip-path-2);}.cls-11,.cls-8{fill:#fff;}.cls-8{stroke-width:4.34px;}.cls-9{stroke-width:5.67px;}.cls-10,.cls-16{stroke-width:2.75px;}.cls-11,.cls-12,.cls-13,.cls-14,.cls-15{stroke-width:2.75px;}.cls-12,.cls-13,.cls-14,.cls-15,.cls-16{stroke-linecap:round;}.cls-13{stroke-dasharray:34.02 17.01;}.cls-14{stroke-dasharray:25.51 17.01;}.cls-15{stroke-dasharray:31.89 15.95;}</style><clipPath id="clip-path"><circle class="cls-1" cx="283.46" cy="-378.58" r="239.17"/></clipPath><clipPath id="clip-path-2"><circle class="cls-1" cx="283.46" cy="283.46" r="239.17"/></clipPath></defs><g class="cls-2"><g id="_3" data-name="3"><circle class="cls-1" cx="283.46" cy="-378.58" r="239.17"/><g class="cls-3"><g class="cls-4"><path class="cls-5" d="M155.54,130.1l-5.68-6.33L229.65,52a103.79,103.79,0,0,0,7.76-146.42l-34.87-38.77a111.47,111.47,0,0,1-28.62-81,111.42,111.42,0,0,1,37-77.47l38.94-35,5.69,6.32-38.95,35a103,103,0,0,0-34.2,71.6,103,103,0,0,0,26.44,74.82l34.87,38.77a112.32,112.32,0,0,1-8.4,158.44Z"/></g><path class="cls-6" d="M252.72-371.48l-38.94,35A107.94,107.94,0,0,0,205.7-184l34.87,38.76A108,108,0,0,1,232.49,7.18L152.7,78.94"/></g><circle class="cls-1" cx="283.46" cy="283.46" r="239.17"/><g class="cls-7"><g class="cls-4"><path class="cls-5" d="M155.54,792.14l-5.68-6.32,79.79-71.76a103.81,103.81,0,0,0,7.76-146.43l-34.87-38.76a112.18,112.18,0,0,1,8.4-158.44l38.94-35,5.69,6.33-38.95,35a103.7,103.7,0,0,0-7.76,146.43L243.73,562a112.31,112.31,0,0,1-8.4,158.43Z"/><rect class="cls-5" x="240.6" y="308.32" width="53.23" height="34.74" rx="5.7" transform="translate(-149.26 262.22) rotate(-41.97)"/><rect class="cls-5" x="251.44" y="271.18" width="89.13" height="58.18" rx="9.54" transform="translate(-124.87 274.95) rotate(-41.97)"/><rect class="cls-5" x="231.51" y="88.96" width="455.58" height="128.86" rx="17.23" transform="translate(15.22 346.47) rotate(-41.97)"/></g><rect class="cls-8" x="443.81" y="0.54" width="47.09" height="21.91" rx="5.99" transform="translate(112.17 315.47) rotate(-41.97)"/><path class="cls-9" d="M252.72,290.57l-38.94,35A107.94,107.94,0,0,0,205.7,478l34.87,38.77a107.94,107.94,0,0,1-8.08,152.43L152.7,741"/><path class="cls-10" d="M342.22,237l-26.15-29.07a9.54,9.54,0,0,0-13.47-.72l-52.09,46.85a9.54,9.54,0,0,0-.72,13.47l1.23,1.36-11,9.87a5.71,5.71,0,0,0-.43,8.05l15.62,17.36a5.69,5.69,0,0,0,8,.43l11-9.87,1.69,1.88a9.55,9.55,0,0,0,13.47.71l52.09-46.85A9.54,9.54,0,0,0,342.22,237Z"/><rect class="cls-11" x="231.51" y="40.96" width="455.58" height="128.86" rx="17.23" transform="translate(47.32 334.16) rotate(-41.97)"/><path class="cls-8" d="M966.32-263.48,671.68,1.25a64.43,64.43,0,0,1-91-4.87h0a64.42,64.42,0,0,1,4.87-91L880.2-359.34a4,4,0,0,1,5.66.31l80.77,89.89A4,4,0,0,1,966.32-263.48Z"/><rect class="cls-5" x="355.42" y="46.78" width="238.62" height="89.96" rx="6.28" transform="translate(60.24 340.73) rotate(-41.93)"/><circle class="cls-5" cx="333.31" cy="218.79" r="34.86"/><path class="cls-12" d="M307.37,242.09a34.86,34.86,0,1,1,49.24,2.64"/></g><line class="cls-13" x1="336.28" y1="326.87" x2="369.8" y2="379.43"/><line class="cls-14" x1="210.14" y1="211.49" x2="163.07" y2="191.19"/><line class="cls-15" x1="173.47" y1="270.81" x2="120.42" y2="284.58"/><line class="cls-13" x1="298.54" y1="346.92" x2="295.63" y2="409.19"/><line class="cls-13" x1="220.56" y1="130.06" x2="240.25" y2="168.22"/><path class="cls-16" d="M250.8,268.54l14.08,15.65"/></g></g></svg>