<svg xmlns="http://www.w3.org/2000/svg" viewBox="0 0 566.93 566.93"><defs><style>.cls-1{isolation:isolate;}.cls-2{fill:#dce2f0;}.cls-3,.cls-5{fill:#d5ecf7;}.cls-3{mix-blend-mode:multiply;}.cls-4,.cls-6{fill:#fff;}.cls-4,.cls-6,.cls-7{stroke:#0477bc;stroke-linejoin:round;stroke-width:2.75px;}.cls-6,.cls-7{stroke-linecap:round;}.cls-7{fill:none;}</style></defs><g class="cls-1"><g id="Ledger"><circle class="cls-2" cx="283.46" cy="283.46" r="239.17"/><path class="cls-3" d="M544.34,261.6,504.21,201a2.41,2.41,0,0,0-3.34-.68L311.81,325.35H59.7a10.36,10.36,0,0,0-10.36,10.36v56.81A10.36,10.36,0,0,0,59.7,402.89H313.11a10.16,10.16,0,0,0,3.51-.63,38.6,38.6,0,0,0,28.25-5.81L543.66,264.94A2.41,2.41,0,0,0,544.34,261.6Z"/><rect class="cls-4" x="30.63" y="293.77" width="288.57" height="81.62" rx="10.91"/><rect class="cls-5" x="112.54" y="305.97" width="151.79" height="57.22" rx="4"/><path class="cls-4" d="M551,230.19,341.72,368.62a40.82,40.82,0,0,1-56.56-11.52h0a40.82,40.82,0,0,1,11.52-56.55L505.93,162.11a2.55,2.55,0,0,1,3.52.72l42.23,63.84A2.55,2.55,0,0,1,551,230.19Z"/><path class="cls-6" d="M510.28,177.65l31.9,48.23a2.4,2.4,0,0,1-.68,3.34l-199,131.68a38.6,38.6,0,0,1-25.31,6.24"/><circle class="cls-5" cx="319.2" cy="334.58" r="22.18"/><circle class="cls-5" cx="67.51" cy="334.58" r="22.18"/><path class="cls-7" d="M45.34,334.58a22.18,22.18,0,1,1,22.17,22.18"/><path class="cls-7" d="M297,334.58a22.18,22.18,0,1,1,22.18,22.18"/></g></g></svg>